<?xml version="1.0" encoding="UTF-8"?>
<!DOCTYPE svg PUBLIC "-//W3C//DTD SVG 1.1//EN" "http://www.w3.org/Graphics/SVG/1.1/DTD/svg11.dtd">
<!-- Creator: CorelDRAW -->
<svg xmlns="http://www.w3.org/2000/svg" xml:space="preserve" width="6.82666in" height="6.82666in" style="shape-rendering:geometricPrecision; text-rendering:geometricPrecision; image-rendering:optimizeQuality; fill-rule:evenodd; clip-rule:evenodd"
viewBox="0 0 6.82666 6.82666"
 xmlns:xlink="http://www.w3.org/1999/xlink">
 <defs>
  <style type="text/css">
   <![CDATA[
    .fil2 {fill:none}
    .fil0 {fill:#66BB6B;fill-rule:nonzero}
    .fil1 {fill:#66BB6A;fill-rule:nonzero}
   ]]>
  </style>
 </defs>
 <g id="Layer_x0020_1">
  <metadata id="CorelCorpID_0Corel-Layer"/>
  <path class="fil0" d="M3.73333 2.5046c-0.0589094,0 -0.106669,0.0477598 -0.106669,0.106669 0,0.0589094 0.0477598,0.106669 0.106669,0.106669l1.8898 0 -0.684602 2.39614c-0.0550906,0.192835 -0.138126,0.37276 -0.259213,0.493846 -0.0935984,0.0935945 -0.212272,0.152067 -0.361705,0.152067l-1.80856 0c-0.149437,0 -0.26811,-0.0584685 -0.361705,-0.152063 -0.121079,-0.121079 -0.204118,-0.301 -0.259213,-0.49385l-0.684602 -2.39614 1.8898 0c0.0589094,0 0.106669,-0.0477598 0.106669,-0.106669 0,-0.0589094 -0.0477598,-0.106669 -0.106669,-0.106669l-2.02897 0c-0.0103701,-0.000204724 -0.0209488,0.00111024 -0.0314409,0.0041063 -0.0566417,0.0161811 -0.0894409,0.0752244 -0.0732598,0.131866l9.44882e-005 -2.75591e-005 0.723382 2.53187c0.0640984,0.224358 0.16387,0.436846 0.313378,0.586354 0.132067,0.132067 0.300138,0.214567 0.512539,0.214567l1.80856 0c0.212398,0 0.380469,-0.0825039 0.512539,-0.214571 0.149516,-0.149516 0.249283,-0.362004 0.313378,-0.58635l0.721949 -2.52685c0.00364961,-0.0107598 0.00563386,-0.0222913 0.00563386,-0.0342874 0,-0.0589094 -0.0477598,-0.106669 -0.106669,-0.106669l-2.03111 0z"/>
  <path class="fil0" d="M3.23654 0.853331l0.353579 0c0.0688268,0 0.131327,0.0280827 0.176563,0.0733189 0.0452441,0.0452362 0.0733228,0.107732 0.0733228,0.176563l0 2.06467c0,0.0688268 -0.0280827,0.131331 -0.0733189,0.176567 -0.0452402,0.0452402 -0.10774,0.0733228 -0.176567,0.0733228l-0.353579 0c-0.0688268,0 -0.131327,-0.0280827 -0.176567,-0.0733228 -0.0452362,-0.0452362 -0.0733189,-0.10774 -0.0733189,-0.176567l0 -2.06467c0,-0.0688307 0.0280787,-0.131327 0.0733228,-0.176563 0.0452362,-0.0452362 0.107736,-0.0733189 0.176563,-0.0733189zm0.353579 0.213339l-0.353579 0c-0.00994094,0 -0.0190591,0.00414567 -0.0257283,0.010815 -0.00667323,0.00667323 -0.0108189,0.0157913 -0.0108189,0.0257283l0 2.06467c0,0.00994094 0.00414567,0.019063 0.010815,0.0257323 0.00667323,0.00667323 0.0157913,0.0108189 0.0257323,0.0108189l0.353579 0c0.00994094,0 0.0190591,-0.00414567 0.0257323,-0.0108189 0.00666929,-0.00666929 0.010815,-0.0157913 0.010815,-0.0257323l0 -2.06467c0,-0.00993701 -0.00414567,-0.0190551 -0.0108189,-0.0257283 -0.00666929,-0.00666929 -0.0157874,-0.010815 -0.0257283,-0.010815z"/>
  <path class="fil0" d="M4.40259 3.52641l0.383535 0c0.0294528,0 0.0533346,0.0238819 0.0533346,0.0533346l0 0.383535c0,0.0294528 -0.0238819,0.0533346 -0.0533346,0.0533346l-0.383535 0c-0.0294528,0 -0.0533346,-0.0238819 -0.0533346,-0.0533346l0 -0.383535c0,-0.0294528 0.0238819,-0.0533346 0.0533346,-0.0533346zm0.330201 0.106669l-0.276866 0 0 0.276866 0.276866 0 0 -0.276866z"/>
  <path class="fil0" d="M2.37073 3.63307l-0.276862 0 0 0.276866 0.276862 0 0 -0.276866zm-0.330197 -0.106669l0.383531 0c0.0294528,0 0.0533346,0.0238819 0.0533346,0.0533346l0 0.383535c0,0.0294528 -0.0238819,0.0533346 -0.0533346,0.0533346l-0.383531 0c-0.0294528,0 -0.0533346,-0.0238819 -0.0533346,-0.0533346l0 -0.383535c0,-0.0294528 0.0238819,-0.0533346 0.0533346,-0.0533346z"/>
  <path class="fil0" d="M3.61524 3.52641l0.383531 0c0.0294528,0 0.0533346,0.0238819 0.0533346,0.0533346l0 0.383535c0,0.0294528 -0.0238819,0.0533346 -0.0533346,0.0533346l-0.383531 0c-0.0294528,0 -0.0533346,-0.0238819 -0.0533346,-0.0533346l0 -0.383535c0,-0.0294528 0.0238819,-0.0533346 0.0533346,-0.0533346zm0.330197 0.106669l-0.276862 0 0 0.276866 0.276862 0 0 -0.276866z"/>
  <path class="fil0" d="M2.82789 3.52641l0.383531 0c0.0294528,0 0.0533346,0.0238819 0.0533346,0.0533346l0 0.383535c0,0.0294528 -0.0238819,0.0533346 -0.0533346,0.0533346l-0.383531 0c-0.0294528,0 -0.0533346,-0.0238819 -0.0533346,-0.0533346l0 -0.383535c0,-0.0294528 0.0238819,-0.0533346 0.0533346,-0.0533346zm0.330197 0.106669l-0.276862 0 0 0.276866 0.276862 0 0 -0.276866z"/>
  <path class="fil0" d="M2.76441 4.40014l-0.276866 0 0 0.276862 0.276866 0 0 -0.276862zm-0.330201 -0.106669l0.383535 0c0.0294528,0 0.0533346,0.0238819 0.0533346,0.0533346l0 0.383531c0,0.0294528 -0.0238819,0.0533346 -0.0533346,0.0533346l-0.383535 0c-0.0294528,0 -0.0533346,-0.0238819 -0.0533346,-0.0533346l0 -0.383531c0,-0.0294528 0.0238819,-0.0533346 0.0533346,-0.0533346z"/>
  <path class="fil0" d="M4.00891 4.29347l0.383535 0c0.0294528,0 0.0533346,0.0238819 0.0533346,0.0533346l0 0.383531c0,0.0294528 -0.0238819,0.0533346 -0.0533346,0.0533346l-0.383535 0c-0.0294528,0 -0.0533346,-0.0238819 -0.0533346,-0.0533346l0 -0.383531c0,-0.0294528 0.0238819,-0.0533346 0.0533346,-0.0533346zm0.330201 0.106669l-0.276866 0 0 0.276862 0.276866 0 0 -0.276862z"/>
  <path class="fil0" d="M3.22156 4.29347l0.383531 0c0.0294528,0 0.0533346,0.0238819 0.0533346,0.0533346l0 0.383531c0,0.0294528 -0.0238819,0.0533346 -0.0533346,0.0533346l-0.383531 0c-0.0294528,0 -0.0533346,-0.0238819 -0.0533346,-0.0533346l0 -0.383531c0,-0.0294528 0.0238819,-0.0533346 0.0533346,-0.0533346zm0.330197 0.106669l-0.276862 0 0 0.276862 0.276862 0 0 -0.276862z"/>
  <path class="fil0" d="M3.15809 5.16721l-0.276866 0 0 0.276862 0.276866 0 0 -0.276862zm-0.330201 -0.106669l0.383535 0c0.0294528,0 0.0533346,0.0238819 0.0533346,0.0533346l0 0.383531c0,0.0294528 -0.0238819,0.0533346 -0.0533346,0.0533346l-0.383535 0c-0.0294528,0 -0.0533346,-0.0238819 -0.0533346,-0.0533346l0 -0.383531c0,-0.0294528 0.0238819,-0.0533346 0.0533346,-0.0533346z"/>
  <path class="fil0" d="M3.61524 5.06054l0.383531 0c0.0294528,0 0.0533346,0.0238819 0.0533346,0.0533346l0 0.383531c0,0.0294528 -0.0238819,0.0533346 -0.0533346,0.0533346l-0.383531 0c-0.0294528,0 -0.0533346,-0.0238819 -0.0533346,-0.0533346l0 -0.383531c0,-0.0294528 0.0238819,-0.0533346 0.0533346,-0.0533346zm0.330197 0.106669l-0.276862 0 0 0.276862 0.276862 0 0 -0.276862z"/>
  <path class="fil1" d="M4.30668 2.39793c0.036685,-0.0942992 0.0777953,-0.183055 0.123319,-0.261906l-0.0920827 -0.0533346 0.092378 0.0533346c0.00161024,-0.0027874 0.00307087,-0.00561811 0.00440157,-0.00848031 0.0648858,-0.110657 0.137917,-0.199492 0.218563,-0.252232 0.0714646,-0.0467402 0.150803,-0.0635315 0.237835,-0.0381181 0.0302441,0.00882677 0.0618504,0.0225394 0.0948465,0.0415551l-0.000106299 0.000181102 0.000129921 7.48031e-005 -0.000125984 0.000220472c0.00191339,0.0011063 0.00385039,0.0021378 0.00580315,0.00311024 0.0055748,0.0033189 0.0112323,0.00683465 0.0169646,0.0105394 0.100335,0.0648031 0.144346,0.147323 0.147524,0.239394 0.00277559,0.0804449 -0.0221339,0.170713 -0.0667244,0.265661l0.230028 0c0.034248,-0.0933819 0.0522165,-0.184972 0.0492008,-0.272331 -0.00559843,-0.162043 -0.0787323,-0.304484 -0.245028,-0.41189 -0.00764961,-0.00494094 -0.0158031,-0.00996457 -0.0244606,-0.0150709 -0.00214961,-0.00145669 -0.0043622,-0.00285039 -0.00664567,-0.00416929l-0.0533307 0.092378 0.0529173 -0.0920827c-0.0482323,-0.0278425 -0.0955276,-0.0482205 -0.141827,-0.0617362 -0.153118,-0.0447126 -0.290929,-0.0163268 -0.413669,0.0639528 -0.109217,0.0714291 -0.204154,0.185 -0.285425,0.323634 -0.00199606,0.00279528 -0.00387402,0.00570472 -0.00562598,0.00874016l0.000220472 0.000129921c-0.063311,0.109689 -0.118579,0.235587 -0.165874,0.368445l0.226795 0z"/>
  <path class="fil1" d="M4.76499 1.69922c-0.0105827,0.0577559 0.0276614,0.113165 0.0854173,0.123748 0.0577559,0.0105827 0.113165,-0.0276614 0.123748,-0.0854173l0.0728937 -0.398102 0.12124 0.193169 -0.000267717 0.000165354c0.0226457,0.0360787 0.0633465,0.053937 0.103012,0.0492244l0.178587 -0.00644488 -0.298819 0.325768c-0.0398071,0.0432598 -0.0370079,0.11061 0.00625197,0.150417 0.0432598,0.0398071 0.11061,0.0370079 0.150417,-0.00625197l0.466425 -0.508492c0.0210906,-0.0203031 0.0337874,-0.0491535 0.0326496,-0.0807126 -0.00212205,-0.0588701 -0.0515748,-0.104874 -0.110445,-0.102752l1.1811e-005 0.000350394 -0.380252 0.0137244 -0.229681 -0.365945c-0.0147205,-0.0280039 -0.0417047,-0.0492008 -0.0752362,-0.0553425 -0.0579449,-0.0106102 -0.113524,0.0277638 -0.124134,0.0857087l0.000334646 6.29921e-005 -0.122154 0.667122z"/>
  <path class="fil1" d="M1.53244 2.39793l-0.0032126 -0.00235827 -0.00170866 0.00235827 0.00492126 0zm-0.0049685 0l0.00181496 -0.00250394c-0.00865354,-0.00626772 -0.0179331,-0.0110315 -0.0275315,-0.014374 -0.0348543,-0.0203268 -0.0494213,-0.139811 -0.0431102,-0.254508 0.00220472,-0.0401181 0.0079252,-0.0782008 0.0172795,-0.110559 0.00772441,-0.0267244 0.017437,-0.0485236 0.0289921,-0.0622835 0.00243307,-0.00289764 0.00672047,-0.00361811 0.0133228,-0.000771654 0.00137402,0.000590551 0.00801575,0.00962598 0.0178031,0.0202756 0.0166575,0.0181181 0.0338307,0.0367953 0.0564213,0.0536811 0.0958898,0.0716654 0.21415,0.0884803 0.400142,-0.160378 0.0254213,-0.0340157 0.158488,0.0530118 0.258606,0.118496 0.116335,0.0760866 0.210504,0.137685 0.292929,0.0651732 0.00912598,-0.0080315 0.0233583,-0.021748 0.0388701,-0.0366969 0.037378,-0.0360197 0.0889843,-0.0857559 0.118614,-0.0957992 0.0286732,0.051 0.0864488,0.0840945 0.154579,0.10487 0.00778346,0.00237402 0.0157323,0.00459449 0.0237835,0.00667717l0 -0.2465c-0.00570472,-0.00946063 -0.0129882,-0.018185 -0.0218189,-0.0257795l-0.0695512 0.080874 0.0691654 -0.0808346c-0.161831,-0.139177 -0.310472,-0.00451181 -0.413327,0.0945433l-0.00894882 0.00861811c-0.162512,-0.128508 -0.453449,-0.335606 -0.613736,-0.121146 -0.078185,0.10461 -0.0969055,0.120709 -0.101803,0.117047 -0.00774016,-0.00578346 -0.0176496,-0.016563 -0.0272559,-0.0270118 -0.0256535,-0.0279094 -0.0502717,-0.054685 -0.0903071,-0.0719449 -0.109752,-0.0473307 -0.196378,-0.016811 -0.260819,0.059937 -0.0309488,0.0368543 -0.054063,0.0852559 -0.0698268,0.139787 -0.0141378,0.0489094 -0.0226024,0.103205 -0.0256181,0.158055 -0.00529921,0.0962835 0.00767323,0.198256 0.0373543,0.283055l0.243976 0z"/>
 </g>
 <rect class="fil2" width="6.82666" height="6.82666"/>
</svg>
